<?xml version="1.0" encoding="UTF-8"?>
<svg xmlns="http://www.w3.org/2000/svg" id="Outline" viewBox="0 0 512 512" width="512" height="512"><path d="M256,16C123.452,16,16,123.452,16,256S123.452,496,256,496,496,388.548,496,256,388.548,16,256,16ZM104,420.517V405.1a56.121,56.121,0,0,1,37.165-52.738l30.49-10.889C195.953,371.356,234.5,376,256,376s60.047-4.644,84.345-34.525l30.489,10.889A56.121,56.121,0,0,1,408,405.1v15.415a223.948,223.948,0,0,1-304,0ZM325.8,168.308c-24.134,6.9-48.859,4.07-73.485-8.4a127.355,127.355,0,0,1-30.579-21.482,7.948,7.948,0,0,0-2.385-1.666l-10.314-30.943C217.822,96.553,229.2,91.876,243,91.876a70.752,70.752,0,0,1,11.273.948,100.139,100.139,0,0,1,29.755,10.122c.128.074.259.143.391.209,41.835,20.917,65.182,22.459,77.5,19.943.516,6.151.092,14.744-4.242,22.87C352.158,156.326,341.432,163.843,325.8,168.308Zm-130.3-52.492L207.132,150.7c-3.19,13.722-14.577,31.949-23.007,43.8C172.484,176.9,168.372,160.826,171.9,146.6,175.66,131.426,187.5,121.2,195.506,115.816ZM192,210.76c5.893-7.645,22.769-30.659,29.339-51.584a150.434,150.434,0,0,0,23.231,14.743c24.7,12.634,50.57,16.768,75.43,12.166V224a56.063,56.063,0,0,1-56,56H248a56.063,56.063,0,0,1-56-56ZM248,296h16a71.537,71.537,0,0,0,32-7.528v27.141c-26.877,16.5-53.123,16.5-80,0V288.472A71.537,71.537,0,0,0,248,296Zm-41.02,32.859c32.547,20.256,65.493,20.256,98.04,0l19.086,6.817C303.752,356.606,273.431,360,256,360s-47.753-3.394-68.106-24.324Zm217,75.305A72.149,72.149,0,0,0,376.216,337.3L312,314.362V277.608A71.831,71.831,0,0,0,336,224V181.832c16.976-5.966,29.053-15.541,35.912-28.545,11.076-21,3.985-42.9,3.677-43.817-.943-2.83-3-5.346-5.944-5.816a7.128,7.128,0,0,0-7.111,2.443c-2.182,1.205-19.161,8.61-70.785-17.167a115.5,115.5,0,0,0-34.434-11.822c-25.89-4.311-47.416,2.757-62.381,20.458-7,3.556-31.7,17.824-38.528,45.033-5.247,20.919,1.346,43.822,19.594,68.106V224a71.831,71.831,0,0,0,24,53.608v36.754L135.784,337.3a72.149,72.149,0,0,0-47.765,66.868A223.131,223.131,0,0,1,32,256C32,132.288,132.288,32,256,32S480,132.288,480,256A223.131,223.131,0,0,1,423.981,404.164Z"/></svg>
